<svg xmlns="http://www.w3.org/2000/svg" width="546.924" height="597.361" viewBox="0 0 546.924 597.361"><g transform="translate(-686.537 -241.32)"><g transform="matrix(0.819, -0.574, 0.574, 0.819, 839.357, 333.078)" fill="none" stroke="#f45959" stroke-width="16"><ellipse cx="79.988" cy="139.334" rx="79.988" ry="139.334" stroke="none"/><ellipse cx="79.988" cy="139.334" rx="71.988" ry="131.334" fill="none"/></g><g transform="matrix(0.819, -0.574, 0.574, 0.819, 832.477, 346.84)" fill="none" stroke="#f45959" stroke-width="16"><ellipse cx="79.988" cy="139.334" rx="79.988" ry="139.334" stroke="none"/><ellipse cx="79.988" cy="139.334" rx="71.988" ry="131.334" fill="none"/></g><g transform="matrix(0.819, -0.574, 0.574, 0.819, 839.357, 333.078)" fill="none" stroke="#f45959" stroke-width="16"><ellipse cx="79.988" cy="139.334" rx="79.988" ry="139.334" stroke="none"/><ellipse cx="79.988" cy="139.334" rx="71.988" ry="131.334" fill="none"/></g><g transform="matrix(0.819, -0.574, 0.574, 0.819, 832.477, 346.84)" fill="none" stroke="#f45959" stroke-width="16"><ellipse cx="79.988" cy="139.334" rx="79.988" ry="139.334" stroke="none"/><ellipse cx="79.988" cy="139.334" rx="71.988" ry="131.334" fill="none"/></g><g transform="translate(686.551 749.805)"><rect width="182.304" height="29.624" transform="translate(364.608 0)" fill="#f45959"/><rect width="182.304" height="29.624" transform="translate(182.304 29.626)" fill="#fdf539"/><rect width="182.304" height="29.624" transform="translate(0 59.251)"/></g><path d="M65.4,98.833q0,7.253,1.9,9.972t7.829,2.72q1.319,0,5.6-.33a.728.728,0,0,1,.824.824v11.538q0,.659-.824.989-5.439.494-9.56.494-12.857,0-17.8-5.852t-4.945-19.7v-45H37.544a.728.728,0,0,1-.824-.824V42.79a.728.728,0,0,1,.824-.824H48.423V23.67q0-.989.659-.989l15.494-2.967a.423.423,0,0,1,.577.165,1.1,1.1,0,0,1,.247.659V41.966H80.73a.728.728,0,0,1,.824.824V53.669a.728.728,0,0,1-.824.824H65.4Zm62.306-58.35q28.516,0,28.516,31.977v51.1a.728.728,0,0,1-.824.824H140.069a.728.728,0,0,1-.824-.824V76.416q0-12.527-4.038-17.8t-12.28-5.275a16.965,16.965,0,0,0-14.093,6.923q-5.357,6.923-5.357,17.472v45.823a.728.728,0,0,1-.824.824H87.323a.728.728,0,0,1-.824-.824V9.824A.728.728,0,0,1,87.323,9h15.329a.728.728,0,0,1,.824.824V52.68Q112.707,40.483,127.707,40.483Zm69.064-.165q17.637,0,27.609,12.115t9.313,32.719a.728.728,0,0,1-.824.824H176q.989,27.362,20.934,27.362,7.582,0,12.527-3.709A17.241,17.241,0,0,0,215.892,99q.33-.824.989-.824h15.165q1.154,0,.824.824-2.8,12.857-12.445,19.945t-23.653,7.088q-18.3,0-28.6-11.621t-10.3-31.236q0-19.285,10.549-31.071T196.771,40.318Zm0,12.527q-9.066,0-14.505,5.934t-6.1,16.318h40.054q-.33-10.22-5.522-16.236T196.771,52.845Zm107.305,61.482q-10.879,11.7-29.01,11.7t-28.928-11.785q-10.8-11.785-10.8-31.071t10.8-31.071q10.8-11.785,28.928-11.785T304.077,52.1q10.879,11.785,10.879,31.071T304.077,114.327Zm-45-9.56q5.769,7.912,15.989,7.912a18.771,18.771,0,0,0,16.071-8.077q5.852-8.077,5.852-21.428t-5.852-21.428a19.864,19.864,0,0,0-31.977,0q-5.852,8.077-5.852,21.428Q253.309,96.69,259.078,104.767ZM361.768,41.8q.824.33.824.989V55.482q0,.989-.824.659-11.7-.659-18.708,5.769t-7.005,18.131v43.516a.728.728,0,0,1-.824.824H319.9a.728.728,0,0,1-.824-.824V42.79a.728.728,0,0,1,.824-.824h13.681q.989,0,.989.824l.824,11.868Q345.12,40.483,361.768,41.8Zm34.779-1.483q17.637,0,27.609,12.115t9.313,32.719a.728.728,0,0,1-.824.824H375.779q.989,27.362,20.934,27.362,7.582,0,12.527-3.709A17.242,17.242,0,0,0,415.668,99q.33-.824.989-.824h15.165q1.154,0,.824.824-2.8,12.857-12.445,19.945t-23.653,7.088q-18.3,0-28.6-11.621t-10.3-31.236q0-19.285,10.549-31.071T396.547,40.318Zm0,12.527q-9.066,0-14.505,5.934t-6.1,16.318H416q-.33-10.22-5.522-16.236T396.547,52.845ZM528.412,40.318q13.681,0,21.346,7.912t7.665,24.23v51.1q0,.989-.824.989H541.269q-.824,0-.824-.989V76.251q0-12.527-3.544-17.307t-11.95-4.78q-7.747,0-13.1,6.511t-5.357,17.06v45.823q0,.989-.824.989H490.336q-.824,0-.824-.989V76.251q0-11.209-3.461-16.648t-11.538-5.439a17.008,17.008,0,0,0-13.681,6.593q-5.439,6.593-5.439,16.813v45.988q0,.989-.824.989H439.239q-.824,0-.824-.989V42.79a.728.728,0,0,1,.824-.824H452.92q.989,0,.989.824l.824,11.044q8.9-13.516,23.9-13.516,16.318,0,23.736,15.824A38.332,38.332,0,0,1,513.33,44.851,26.227,26.227,0,0,1,528.412,40.318Zm38.076,84.064a.728.728,0,0,1-.824-.824V105.921a.728.728,0,0,1,.824-.824h16.318a.728.728,0,0,1,.824.824v17.637a.728.728,0,0,1-.824.824Z" transform="translate(649.816 550.328)" fill="#f45959"/></g></svg>